<?xml version="1.0" encoding="UTF-8" standalone="no"?>
<svg
   version="1.1"
   viewBox="-150 -70 100 100"
   fill="currentColor"
   id="svg1"
   width="100"
   height="100"
   sodipodi:docname="arrow-not-peak.svg"
   inkscape:version="1.4.4 (dcaf3e7, 2026-05-05)"
   xmlns:inkscape="http://www.inkscape.org/namespaces/inkscape"
   xmlns:sodipodi="http://sodipodi.sourceforge.net/DTD/sodipodi-0.dtd"
   xmlns="http://www.w3.org/2000/svg"
   xmlns:svg="http://www.w3.org/2000/svg">
  <sodipodi:namedview
     id="namedview1"
     pagecolor="#ffffff"
     bordercolor="#666666"
     borderopacity="1.0"
     inkscape:showpageshadow="2"
     inkscape:pageopacity="0.0"
     inkscape:pagecheckerboard="0"
     inkscape:deskcolor="#d1d1d1"
     inkscape:zoom="21.738223"
     inkscape:cx="43.977836"
     inkscape:cy="86.552613"
     inkscape:window-width="1710"
     inkscape:window-height="988"
     inkscape:window-x="0"
     inkscape:window-y="942"
     inkscape:window-maximized="0"
     inkscape:current-layer="svg1"
     showguides="true">
    <sodipodi:guide
       position="7.8343396,50"
       orientation="0,1"
       id="guide1"
       inkscape:locked="false"
       inkscape:label=""
       inkscape:color="rgb(0,134,229)" />
    <sodipodi:guide
       position="50,86.942767"
       orientation="-1,0"
       id="guide2"
       inkscape:locked="false"
       inkscape:label=""
       inkscape:color="rgb(0,134,229)" />
  </sodipodi:namedview>
  <defs
     id="defs1" />
  <path
     id="wind"
     style="baseline-shift:baseline;display:inline;overflow:visible;vector-effect:none;fill:#00ca00;fill-opacity:1;stroke:#000000;stroke-width:0.892986;stroke-linecap:round;stroke-linejoin:round;stroke-opacity:1;enable-background:accumulate;stop-color:#000000"
     inkscape:label="wind"
     d="m -99.983006,-69.545169 c -2.641884,0.202394 -3.468904,3.086028 -4.976304,4.838852 -4.96712,7.150602 -10.04328,14.232239 -14.94299,21.425929 -1.45528,2.879829 2.48632,5.682327 4.86352,3.644118 2.36843,-1.184221 4.73653,-2.368269 7.10497,-3.552487 v 4.65559 c -9.24943,3.791295 -14.5673,15.129861 -11.23368,24.618939 1.72546,5.5140714 5.913,10.1794997 11.23368,12.4425097 0.0406,6.2605834 -0.0811,22.2721323 0.0634,28.5274893 0.50119,2.682452 3.44753,2.509997 5.54372,2.442334 2.803984,-0.115692 5.670621,0.256261 8.426575,-0.241415 2.66878,-1.222783 1.677368,-4.415752 1.869632,-6.736683 l 0,-23.9917253 c 9.249021,-3.7903565 14.565469,-15.1254137 11.233685,-24.6136507 -1.726233,-5.514395 -5.91157,-10.184981 -11.233685,-12.447798 v -4.65559 c 2.96819,1.370252 5.788309,3.13632 8.861834,4.223864 3.063429,0.393722 4.469131,-3.718461 2.255546,-5.612434 -5.521694,-7.887248 -11.042478,-15.774844 -16.564164,-23.662092 -0.557364,-0.80841 -1.522107,-1.312362 -2.504018,-1.30575 z m -0.01759,39.567219 c 4.786096,-0.04523 9.20048,3.726809 9.843365,8.481208 0.921932,5.190175 -3.006021,10.598214 -8.236273,11.321786 -5.133592,0.9772602 -10.532512,-2.810439 -11.378182,-7.968422 -1.17221,-5.279895 2.80808,-10.950867 8.16578,-11.684789 0.52946,-0.09751 1.06676,-0.149945 1.60531,-0.149783 z"
     sodipodi:nodetypes="ccccccccccccccccccccccccccc" />
  <path
     style="baseline-shift:baseline;display:inline;overflow:visible;vector-effect:none;fill:#aa2800;fill-opacity:1;stroke:#000000;stroke-width:0.633359;stroke-linecap:round;stroke-linejoin:round;stroke-opacity:1;enable-background:accumulate;stop-color:#000000"
     d="m -101.60564,-29.828184 c -5.35772,0.733923 -9.33853,6.40487 -8.16633,11.684764 0.84567,5.157983 6.24487,8.9457237 11.378458,7.968464 5.230248,-0.723572 9.15869,-6.132738 8.236759,-11.322912 -0.642884,-4.7544 -5.056736,-8.526193 -9.842813,-8.480971 -0.538564,-1.63e-4 -1.076614,0.05315 -1.606074,0.150655 z"
     id="gusts"
     inkscape:label="gusts"
     sodipodi:nodetypes="cccccc" />
  <path
     style="fill:#3d2fb9;fill-opacity:1;stroke:#000000;stroke-width:0.19966;stroke-linecap:round;stroke-linejoin:round;paint-order:stroke markers fill"
     id="center"
     sodipodi:type="arc"
     sodipodi:cx="100"
     sodipodi:cy="-20"
     sodipodi:rx="0.90221858"
     sodipodi:ry="0.90221858"
     sodipodi:start="0"
     sodipodi:end="6.2745091"
     sodipodi:arc-type="arc"
     inkscape:label="center"
     transform="scale(-1,1)"
     d="m 100.90222,-20 a 0.90221858,0.90221858 0 0 1 -0.90026,0.902216 0.90221858,0.90221858 0 0 1 -0.90417,-0.898302 0.90221858,0.90221858 0 0 1 0.896339,-0.906113 0.90221858,0.90221858 0 0 1 0.908051,0.894371"
     sodipodi:open="true" />
</svg>
