<?xml version="1.0" encoding="UTF-8" standalone="no"?>
<!-- Created with Inkscape (http://www.inkscape.org/) -->

<svg
   width="127.33402mm"
   height="99.129211mm"
   viewBox="0 0 127.33402 99.129211"
   version="1.1"
   id="svg1"
   xml:space="preserve"
   inkscape:version="1.4 (e7c3feb1, 2024-10-09)"
   sodipodi:docname="logo.svg"
   inkscape:export-filename="logo.png"
   inkscape:export-xdpi="96"
   inkscape:export-ydpi="96"
   xmlns:inkscape="http://www.inkscape.org/namespaces/inkscape"
   xmlns:sodipodi="http://sodipodi.sourceforge.net/DTD/sodipodi-0.dtd"
   xmlns="http://www.w3.org/2000/svg"
   xmlns:svg="http://www.w3.org/2000/svg"><sodipodi:namedview
     id="namedview1"
     pagecolor="#ffffff"
     bordercolor="#666666"
     borderopacity="1.0"
     inkscape:showpageshadow="2"
     inkscape:pageopacity="0.0"
     inkscape:pagecheckerboard="true"
     inkscape:deskcolor="#d1d1d1"
     inkscape:document-units="mm"
     inkscape:zoom="0.8893723"
     inkscape:cx="148.41928"
     inkscape:cy="298.52515"
     inkscape:window-width="1656"
     inkscape:window-height="1040"
     inkscape:window-x="56"
     inkscape:window-y="44"
     inkscape:window-maximized="1"
     inkscape:current-layer="layer1" /><defs
     id="defs1" /><g
     inkscape:label="Layer 1"
     inkscape:groupmode="layer"
     id="layer1"
     transform="translate(-39.556175,-89.719814)"><g
       id="g20"
       transform="translate(-1.3728837,-9.1878259)"><path
         style="fill:#f67625"
         d="m 86.064979,155.17266 v -0.085 l 0.439631,-0.86175 0.439631,-0.86174 0.425581,-1.1661 0.425581,-1.1661 0.439233,-1.54122 0.439233,-1.54122 0.343307,-1.7614 0.343307,-1.7614 0.348787,-2.53201 0.348788,-2.532 0.124561,-6.32493 0.12456,-6.32493 -0.260908,-3.14258 -0.260908,-3.14259 -0.336198,-2.20174 -0.336197,-2.20175 -0.630184,-2.64209 -0.630183,-2.6421 -0.431948,-1.21096 -0.431948,-1.21096 -0.366218,-0.85315 -0.366218,-0.85315 0.509836,0.1151 0.509835,0.1151 9.797772,2.14608 9.797768,2.14608 0.26698,0.20835 0.26697,0.20835 0.67645,1.7541 0.67645,1.7541 0.54376,2.0238 0.54376,2.0238 0.47123,3.08244 0.47123,3.08245 0.006,4.51358 0.006,4.51358 -0.37735,2.75218 -0.37736,2.75218 -0.45192,2.20175 -0.45193,2.20175 -0.77677,2.42192 -0.77677,2.42192 -0.6091,1.21096 -0.6091,1.21096 -6.24451,1.1581 -6.2445,1.1581 -3.9081,0.73453 -3.908101,0.73453 z m 53.743001,-11.46145 0.43702,-1.26601 0.58862,-2.75218 0.58862,-2.75219 -6.3e-4,-5.1741 -6.3e-4,-5.1741 -0.48188,-2.21403 -0.48189,-2.21403 -0.53515,-1.63903 -0.53516,-1.63903 0.092,-0.0935 0.092,-0.0935 8.49085,2.24925 8.49084,2.24924 1.19851,0.44842 1.19851,0.44842 0.66791,0.56201 0.66792,0.56201 0.53083,1.04756 0.53084,1.04755 0.22729,1.40073 0.22729,1.40073 -0.003,1.98157 -0.003,1.98157 -0.21601,1.49389 -0.21601,1.49388 -0.54144,1.06848 -0.54143,1.06847 -0.92791,0.79426 -0.92791,0.79425 -0.94829,0.45906 -0.94829,0.45906 -8.39211,1.63365 -8.3921,1.63365 h -0.18694 -0.18694 z"
         id="path21" /><path
         style="fill:#0e3a4f"
         d="m 42.626175,197.57916 -0.835008,-0.44067 -0.431054,-0.70551 -0.431054,-0.70551 0.0551,-46.27559 0.0551,-46.27559 0.460593,-0.62161 0.460594,-0.62162 0.727883,-0.49539 0.727884,-0.49539 h 1.035753 1.035753 l 0.748128,0.49978 0.748127,0.49978 0.384964,0.76622 0.384963,0.76623 3.42e-4,10.80658 3.43e-4,10.80659 5.454545,-5.52239 5.454544,-5.5224 4.988442,-5.06402 4.988441,-5.06401 0.458515,-0.5888 0.458515,-0.58879 1.405733,-1.11858 1.405734,-1.11858 1.508725,-0.709873 1.508725,-0.709877 1.645115,-0.08625 1.645116,-0.08625 1.547417,0.271234 1.547417,0.271233 6.054804,1.281203 6.054803,1.2812 5.614454,1.21672 5.614459,1.21673 4.36351,0.99739 4.36351,0.9974 12.14959,2.88289 12.14959,2.8829 5.1741,1.3155 5.17411,1.31551 5.1741,1.32926 5.1741,1.32927 1.17407,0.40971 1.17407,0.40972 1.02768,0.6006 1.02768,0.60061 1.22852,1.22612 1.22852,1.22612 0.69065,1.4472 0.69066,1.44721 0.34398,1.30498 0.34398,1.30497 0.25029,2.25679 0.25028,2.25679 -0.25028,2.25679 -0.25029,2.25679 -0.34398,1.30498 -0.34398,1.30498 -0.65774,1.37817 -0.65775,1.37818 -0.8677,1.09772 -0.8677,1.09773 -1.41299,1.00828 -1.41298,1.00829 -1.22263,0.5407 -1.22263,0.54071 -6.89536,1.43205 -6.89537,1.43205 -12.43987,2.5427 -12.43987,2.5427 -7.59602,1.41704 -7.59603,1.41704 -4.2934,0.79592 -4.293412,0.79592 -7.375851,1.29918 -7.375851,1.29917 -1.871485,0.33838 -1.871484,0.33838 -1.136301,3.1e-4 -1.136301,3e-4 -1.340254,-0.41714 -1.340254,-0.41713 -1.156327,-0.73845 -1.156327,-0.73844 -11.338995,-11.15011 -11.338995,-11.15011 -0.110087,28.91668 -0.110088,28.91668 -0.760845,0.78496 -0.760845,0.78496 -0.780377,0.21679 -0.780378,0.2168 -0.550437,-0.009 -0.550436,-0.008 z m 36.03694,-42.65391 0.854685,-0.81079 0.978157,-2.04167 0.978157,-2.04167 0.621563,-2.47191 0.621562,-2.47191 0.344901,-2.09166 0.344901,-2.09166 0.257096,-2.75219 0.257097,-2.75218 -0.0024,-4.84384 -0.0024,-4.84384 -0.357603,-3.30262 -0.357603,-3.30262 -0.531331,-2.54846 -0.531331,-2.54846 -0.585758,-1.74495 -0.585757,-1.74494 -0.779983,-1.48432 -0.779982,-1.48431 -0.855042,-0.77248 -0.855041,-0.77248 h -0.762638 -0.762638 l -0.76549,0.76549 -0.765489,0.76549 -0.780886,1.64556 -0.780886,1.64556 -0.543067,1.87401 -0.543067,1.87401 -0.45829,2.37481 -0.45829,2.37481 -0.344097,2.97277 -0.344097,2.97278 -0.0024,5.1741 -0.0024,5.17411 0.362447,3.39515 0.362448,3.39516 0.556,2.85152 0.556001,2.85151 0.672248,2.00988 0.672248,2.00988 0.444221,0.88069 0.444222,0.8807 0.442106,0.62727 0.442106,0.62727 0.68506,0.42337 0.685059,0.42337 0.550437,-0.12975 0.550437,-0.12976 z m 21.462565,-2.29479 6.24451,-1.1581 0.6091,-1.21096 0.6091,-1.21096 0.77677,-2.42192 0.77677,-2.42192 0.45193,-2.20175 0.45192,-2.20175 0.37736,-2.75218 0.37735,-2.75218 -0.006,-4.51358 -0.006,-4.51358 -0.47123,-3.08245 -0.47123,-3.08244 -0.54376,-2.0238 -0.54376,-2.0238 -0.67645,-1.7541 -0.67645,-1.7541 -0.26697,-0.20835 -0.26698,-0.20835 -9.797768,-2.14608 -9.797772,-2.14608 -0.509835,-0.1151 -0.509836,-0.1151 0.366218,0.85315 0.366218,0.85315 0.431948,1.21096 0.431948,1.21096 0.630183,2.6421 0.630184,2.64209 0.336197,2.20175 0.336198,2.20174 0.260908,3.14259 0.260908,3.14258 -0.12456,6.32493 -0.124561,6.32493 -0.348788,2.532 -0.348787,2.53201 -0.343307,1.7614 -0.343307,1.7614 -0.439233,1.54122 -0.439233,1.54122 -0.425581,1.1661 -0.425581,1.1661 -0.439631,0.86174 -0.439631,0.86175 v 0.085 0.085 l 3.908101,-0.73453 3.9081,-0.73453 z m 23.25005,-4.42817 9.23849,-1.82799 0.49777,-0.97377 0.49777,-0.97376 0.65273,-1.98157 0.65273,-1.98157 0.34288,-1.72194 0.34288,-1.72193 0.24375,-2.57147 0.24375,-2.57147 -0.14783,-2.31184 -0.14783,-2.31183 -0.41214,-2.42639 -0.41215,-2.42638 -0.58823,-1.86702 -0.58822,-1.86702 -0.39142,-0.77075 -0.39141,-0.77075 -2.72067,-0.62768 -2.72068,-0.62767 -6.85283,-1.62898 -6.85284,-1.62898 h -0.096 -0.0959 l 0.63437,1.8966 0.63436,1.8966 0.52032,2.50916 0.52032,2.50915 0.27855,2.14444 0.27855,2.14445 v 4.51358 4.51358 l -0.27762,2.20174 -0.27762,2.20175 -0.53289,2.67128 -0.53289,2.67128 -0.75948,2.50282 -0.75949,2.50283 -0.15302,0.39649 -0.15303,0.39649 0.52324,-0.12675 0.52324,-0.12674 z m -57.928227,-2.6196 -0.286785,-1.37609 -0.343889,-2.86227 -0.343888,-2.86227 -0.131502,-5.06402 -0.131502,-5.06402 0.258516,-3.52279 0.258516,-3.5228 0.313912,-2.24607 0.313912,-2.24608 0.145345,-0.5791 0.145345,-0.5791 -7.78953,7.85018 -7.78953,7.85018 -0.06822,0.0705 -0.06823,0.0705 7.774338,7.72327 7.774338,7.72328 0.127819,0.006 0.127819,0.006 z m 82.689437,-2.23913 8.39211,-1.63365 0.94829,-0.45906 0.94829,-0.45906 0.92791,-0.79425 0.92791,-0.79426 0.54143,-1.06847 0.54144,-1.06848 0.21601,-1.49388 0.21601,-1.49389 0.003,-1.98157 0.003,-1.98157 -0.22729,-1.40073 -0.22729,-1.40073 -0.53084,-1.04755 -0.53083,-1.04756 -0.66792,-0.56201 -0.66791,-0.56201 -1.19851,-0.44842 -1.19851,-0.44842 -8.49084,-2.24924 -8.49085,-2.24925 -0.092,0.0935 -0.092,0.0935 0.53516,1.63903 0.53515,1.63903 0.48189,2.21403 0.48188,2.21403 6.3e-4,5.1741 6.3e-4,5.1741 -0.58862,2.75219 -0.58862,2.75218 -0.43702,1.26601 -0.43702,1.266 h 0.18694 0.18694 z m -69.667986,48.30162 -1.321048,-0.2052 -1.927562,-0.55087 -1.927561,-0.55088 -0.764757,-0.31953 -0.764757,-0.31954 -0.457427,-0.72881 -0.457427,-0.72882 0.09199,-1.06629 0.09199,-1.06628 0.693546,-0.69355 0.693545,-0.69354 1.043163,0.007 1.043163,0.007 2.091659,0.61397 2.091659,0.61398 3.082445,0.12135 3.082446,0.12134 1.961501,-0.26127 1.961501,-0.26128 2.492121,-0.64256 2.49212,-0.64257 1.952283,-0.75397 1.952282,-0.75397 4.272561,-1.98085 4.27257,-1.98085 1.65131,-0.58873 1.65131,-0.58872 1.7614,-0.43475 1.7614,-0.43475 2.97235,-0.12295 2.97236,-0.12296 2.31183,0.47866 2.31184,0.47866 2.20175,0.86943 2.20174,0.86944 1.54122,0.94797 1.54123,0.94796 0.49539,0.73195 0.49539,0.73195 v 0.68644 0.68644 l -0.40397,0.76718 -0.40398,0.76717 -0.75194,0.39584 -0.75194,0.39585 -0.72415,-0.10818 -0.72416,-0.10817 -1.07602,-0.78987 -1.07602,-0.78987 -1.61253,-0.73707 -1.61254,-0.73707 -1.43113,-0.37159 -1.43114,-0.37159 -2.31183,-0.12254 -2.31183,-0.12255 -1.58635,0.24769 -1.58636,0.24768 -1.81915,0.57467 -1.81915,0.57467 -4.52078,2.15302 -4.520787,2.15302 -2.201747,0.82491 -2.201746,0.82491 -1.871485,0.52407 -1.871485,0.52407 -2.421921,0.45349 -2.421921,0.45349 -3.412707,0.081 -3.412707,0.081 z m 0.550436,-12.65686 -1.871484,-0.29348 -1.871485,-0.59041 -1.871485,-0.59042 -1.710356,-0.85069 -1.710357,-0.85069 -1.324471,-0.89943 -1.324471,-0.89943 -0.795982,-0.69888 -0.795981,-0.69888 -0.297466,-0.71194 -0.297465,-0.71193 v -0.78092 -0.78092 l 0.72313,-0.78907 0.72313,-0.78907 0.983224,-0.10783 0.983223,-0.10784 0.695424,0.51483 0.695425,0.51484 1.378641,1.05557 1.378642,1.05557 1.585643,0.76266 1.585643,0.76266 1.73457,0.47523 1.73457,0.47523 3.963144,0.0184 3.963144,0.0184 1.541223,-0.30335 1.541222,-0.30336 2.469797,-0.74105 2.469797,-0.74106 2.704307,-1.09039 2.704304,-1.0904 2.42193,-1.08699 2.42192,-1.08699 2.43577,-0.80514 2.43578,-0.80514 2.0778,-0.4351 2.07781,-0.43511 2.09166,-0.13554 2.09166,-0.13555 1.9333,0.25824 1.93331,0.25823 1.91854,0.55597 1.91854,0.55597 1.86883,0.87577 1.86883,0.87576 0.52018,0.48569 0.52017,0.48569 0.30935,0.59455 0.30934,0.59455 -0.008,0.7265 -0.008,0.7265 -0.28226,0.50866 -0.28226,0.50866 -0.64568,0.42563 -0.64568,0.42563 -0.83771,0.001 -0.83772,0.001 -1.4375,-0.867 -1.4375,-0.867 -1.68793,-0.56967 -1.68792,-0.56966 -2.03226,-0.25865 -2.03226,-0.25864 -2.17756,0.27176 -2.17757,0.27176 -1.95507,0.53592 -1.95506,0.53592 -1.87149,0.74913 -1.87148,0.74912 -2.86227,1.25141 -2.86228,1.2514 -2.652886,0.964 -2.652891,0.96399 -2.521214,0.66879 -2.521213,0.66879 -2.598329,0.33676 -2.598329,0.33676 -1.915251,-0.0213 -1.915252,-0.0213 z"
         id="path20" /></g></g></svg>
