<?xml version="1.0" encoding="UTF-8" standalone="no"?>
<svg
   version="1.1"
   width="1024"
   height="1024"
   id="svg81"
   sodipodi:docname="logo.svg"
   inkscape:version="1.4.3 (0d15f75, 2025-12-25)"
   xmlns:inkscape="http://www.inkscape.org/namespaces/inkscape"
   xmlns:sodipodi="http://sodipodi.sourceforge.net/DTD/sodipodi-0.dtd"
   xmlns="http://www.w3.org/2000/svg"
   xmlns:svg="http://www.w3.org/2000/svg">
  <defs
     id="defs81" />
  <sodipodi:namedview
     id="namedview81"
     pagecolor="#ffffff"
     bordercolor="#666666"
     borderopacity="1.0"
     inkscape:showpageshadow="2"
     inkscape:pageopacity="0.0"
     inkscape:pagecheckerboard="0"
     inkscape:deskcolor="#d1d1d1"
     inkscape:zoom="1.1000875"
     inkscape:cx="509.50494"
     inkscape:cy="603.13386"
     inkscape:window-width="2837"
     inkscape:window-height="1186"
     inkscape:window-x="2240"
     inkscape:window-y="804"
     inkscape:window-maximized="0"
     inkscape:current-layer="svg81" />
  <path
     id="path2-3"
     style="stroke:#050000;stroke-width:80.0126;stroke-dasharray:none;stroke-opacity:1"
     d="m 256.18516,215.15932 c -44.45702,18.72094 -83.14557,50.57005 -128.74396,65.67631 -33.747323,-8.80178 -76.726287,-4.04267 -62.544684,43.67434 -0.360819,196.52634 1.569586,393.0534 0.246104,589.57853 32.174108,47.71941 77.00309,-13.90785 56.45987,-51.32728 -0.70552,-151.65375 -1.84793,-303.33925 0.11566,-454.95353 1.20279,-22.09445 -8.71832,-87.63111 16.17433,-39.11949 29.35351,45.97275 55.23768,109.77476 119.03826,111.04837 197.2062,27.50909 395.36266,47.87298 593.06067,70.81055 50.02566,18.81048 91.26423,-21.97889 97.31296,-69.77926 23.0502,-44.34216 -8.98713,-105.55491 -62.67602,-93.82163 C 702.3088,355.66368 527.25711,294.0832 350.52984,241.12406 319.26193,231.99325 289.34035,216.14154 256.18516,215.15932 Z m -57.43555,47.90039 c -37.17635,34.73606 -31.3997,123.30813 -25.37614,142.73175 -29.98536,-37.18618 -83.326084,-104.17924 -6.13198,-124.61906 10.67473,-5.72675 21.38479,-11.43685 31.50812,-18.11269 z m 385.73438,76.79687 c -1.3272,6.35843 -3.36319,-0.80713 0,0 z m 147.0449,47.95508 -0.19587,0.24228 z" />
  <g
     id="g1"
     style="stroke:none;stroke-opacity:1;stroke-width:23.69763637;stroke-dasharray:none">
    <path
       d="m 341.16868,237.38742 c 9.92347,3.17167 19.88907,6.2053 29.8885,9.12821 l 2.41088,0.70803 c 4.97406,1.45856 9.95482,2.89206 14.94034,4.31092 v 2.29437 l -3.73285,1.80593 c -1.64777,0.80774 -3.29534,1.61586 -4.94276,2.42433 l -2.44898,1.1808 c -7.23933,3.56962 -14.01617,7.49787 -19.20419,13.80434 -3.66413,4.37706 -7.4606,8.60589 -11.31504,12.81625 -1.83762,2.24738 -3.07081,4.32929 -4.2437,6.97274 h -2.29437 l -0.2868,1.79248 c -0.95957,3.1186 -2.46522,5.69361 -4.10814,8.4986 -22.10982,38.38281 -31.52371,93.0708 -20.6281,136.46831 4.86207,17.97164 11.46554,33.98572 25.02304,47.11536 1.14856,1.14582 2.296,2.29276 3.44156,3.44157 -15.33402,-0.60073 -30.35824,-2.64962 -45.52902,-4.87555 -2.5076,-0.36337 -5.01521,-0.72672 -7.52282,-1.09005 -13.60011,-1.98307 -27.18457,-4.0421 -40.73077,-6.36667 l -3.7673,-0.64642 c -21.37894,-3.79482 -39.1741,-8.65363 -52.44491,-27.10119 -3.46423,-5.20845 -6.56112,-10.59356 -9.4643,-16.13233 -27.53251,-89.8596 -16.1686,-142.31917 51.62346,-212.22976 22.76614,-18.73947 81.04025,7.90873 105.33627,15.67973 z"
       fill="#85b221"
       id="path2"
       sodipodi:nodetypes="cccccccccccccccccccsccccc"
       style="stroke-width:23.69763637;stroke:none;stroke-opacity:1;stroke-dasharray:none" />
    <path
       d="m 118.38662,283.65584 c 2.05272,0 3.62586,0 5.46122,0 12.95587,-7.15852 130.8855,-61.3006 98.61828,-47.55721 -4.22012,29.5736 -61.11817,42.60552 -98.61828,73.94253 0,13.29414 -0.12066,-2.70549 0,13.29414 3.8558,16.43248 72.55878,105.79668 69.82541,126.73448 -19.49083,-22.55265 -50.77928,-80.82759 -69.82541,-103.75945 -5.12848,27.40475 1.21535,-2.78062 0,28.59321 0.70967,46.38569 1.25439,92.76078 -1.83536,139.05879 1.78548,135.04246 1.07957,270.15381 2.09551,405.22225 -14.05991,19.8853 -64.54285,15.97207 -56.072703,-15.67016 -0.132626,-218.40759 -0.901333,-389.8203 -0.797719,-608.22421 2.080517,-18.33216 31.683765,-31.28918 51.149052,-11.63437 z"
       fill="#383d44"
       id="path3"
       sodipodi:nodetypes="ccccccccccccc"
       style="stroke-width:23.69763637;stroke:none;stroke-opacity:1;stroke-dasharray:none" />
    <path
       d="m 439.38656,267.81031 c 1.63406,0.53352 3.26821,1.06677 4.90244,1.59978 0.82331,0.27302 1.64664,0.54605 2.4949,0.82734 3.68773,1.21534 7.39409,2.36884 11.10106,3.52391 0.73728,0.23023 1.47455,0.46046 2.23416,0.69767 22.03231,6.88162 22.03231,6.88162 44.22695,13.21199 8.61656,2.34099 17.10461,5.01492 25.59999,7.76032 9.28586,2.98509 18.63209,5.73516 28.0092,8.4185 6.63818,1.90652 13.20797,3.94445 19.73914,6.19134 0,0.75714 0,1.51429 0,2.29438 -0.79116,0.23808 -1.58232,0.47617 -2.39744,0.72147 -8.202,2.689 -14.15081,6.13473 -20.54632,11.89759 -0.82221,0.72905 -1.64443,1.4581 -2.49155,2.20923 -5.46108,5.14155 -10.04749,10.78136 -14.50117,16.79107 -0.52331,0.70317 -1.04661,1.40634 -1.58578,2.13081 -5.4547,7.55172 -9.1556,15.59977 -12.32387,24.32621 -0.43672,1.1927 -0.43672,1.1927 -0.88224,2.40949 -0.59452,1.6259 -1.18718,3.25248 -1.77792,4.87974 -0.77756,2.11316 -1.59095,4.21305 -2.40809,6.31122 -8.0331,21.08383 -10.38681,42.39464 -9.9169,64.83852 0.0193,1.49507 0.0384,2.99013 0.0583,4.5305 0.64827,18.91077 6.76613,41.91211 20.59113,55.62517 1.13572,0.97008 2.27143,1.94018 3.44156,2.93967 0,0.37857 0,0.75714 0,1.14719 C 525.86105,513.20114 519.03793,512.84826 512,512 c -0.98892,-0.11472 -1.97784,-0.22943 -2.99673,-0.34762 -3.20226,-0.37367 -6.40332,-0.75651 -9.6044,-1.14014 -2.24955,-0.26535 -4.49911,-0.53058 -6.74869,-0.79569 -13.06757,-1.55069 -26.11353,-3.19782 -39.13014,-5.13546 -8.05528,-1.16649 -16.10065,-2.0964 -24.20126,-2.88182 -5.30373,-0.51654 -10.60391,-1.06588 -15.90439,-1.61454 -2.64008,-0.26352 -5.28182,-0.51095 -7.92501,-0.74129 -25.60759,-2.24003 -25.60759,-2.24003 -33.48691,-11.11845 -0.6432,-0.87915 -1.28639,-1.7583 -1.94906,-2.66408 -0.75853,-0.96029 -1.51706,-1.92059 -2.29857,-2.90998 -5.25575,-6.84945 -8.99024,-14.52635 -12.61487,-22.32816 -0.36675,-0.78376 -0.73349,-1.56753 -1.11134,-2.37503 -6.83629,-15.24492 -7.42959,-31.81315 -7.42087,-48.24463 -4.6e-4,-0.89942 -9.3e-4,-1.79884 -10e-4,-2.72551 0.11894,-40.48686 11.77368,-82.77564 38.3605,-114.14426 0.82221,-0.99375 1.64442,-1.9875 2.49154,-3.01137 13.84902,-16.1081 29.93134,-29.51202 51.92816,-22.01166 z"
       fill="#308ae6"
       id="path4"
       style="stroke-width:23.69763637;stroke:none;stroke-opacity:1;stroke-dasharray:none" />
    <path
       d="m 812.86791,373.13649 c 2.45785,0.4261 4.91811,0.83788 7.38055,1.23681 13.66691,2.27993 27.21543,4.72306 40.72965,7.7973 10.19104,2.31193 20.37577,4.11994 30.70964,5.64631 1.18115,0.17475 2.36229,0.34949 3.57923,0.52952 5.93738,0.87127 11.87741,1.71569 17.82271,2.53058 2.20937,0.31517 4.41874,0.63053 6.62799,0.9461 1.00494,0.13011 2.00999,0.26022 3.04533,0.39427 9.25551,1.34439 16.81398,4.26101 22.73955,11.74083 12.61746,19.46086 10.8477,47.38446 6.31849,69.41383 -5.72906,25.22857 -17.2521,57.22007 -39.07609,73.27662 -0.69646,0.52646 -1.39303,1.0529 -2.1106,1.5953 -7.23646,4.42577 -12.82739,5.56997 -21.19166,5.43123 -1.05128,-0.0103 -2.10245,-0.0216 -3.18562,-0.0328 -12.22604,-0.25672 -24.29664,-1.74221 -36.42092,-3.24467 -7.65966,-0.9458 -15.32735,-1.82427 -22.99389,-2.71225 -4.29014,-0.4972 -8.57902,-1.00384 -12.86721,-1.51801 -9.42506,-1.12321 -18.83349,-2.19441 -28.29906,-2.9111 -1.47081,-0.12126 -2.9415,-0.24253 -4.45682,-0.36746 -2.65092,-0.21002 -5.30471,-0.38763 -7.96034,-0.52431 -7.85594,-0.64796 -11.88555,-2.55612 -17.09528,-8.54088 -15.35606,-20.23853 -17.03998,-49.33127 -13.96421,-73.67738 1.26374,-7.34549 3.11083,-14.4933 5.27885,-21.62012 0.37737,-1.25134 0.37737,-1.25134 0.76237,-2.52795 5.98872,-19.12357 15.73316,-36.35466 30.21171,-50.24269 0.78972,-0.78524 1.57933,-1.57048 2.39292,-2.37952 3.96479,-3.73013 8.27409,-6.83922 12.87902,-9.73765 0.94195,-0.59299 1.88402,-1.186 2.85454,-1.79697 5.706,-1.55366 10.5999,0.0584 16.28915,1.29507 z"
       fill="#e43132"
       id="path5"
       style="stroke-width:23.69763637;stroke:none;stroke-opacity:1;stroke-dasharray:none" />
    <path
       d="m 633.9783,326.38859 c 8.80026,2.82627 17.62131,5.38011 26.56205,7.72783 5.43836,1.45706 10.83005,3.05084 16.22643,4.65513 19.24307,5.71546 38.62851,10.7874 58.08787,15.7097 0.86292,0.21886 1.72583,0.43772 2.61489,0.66322 4.35412,1.10013 8.71258,2.17353 13.08333,3.20574 0.85331,0.20446 1.70658,0.40892 2.58567,0.61958 1.61731,0.38649 3.23634,0.76536 4.85743,1.13545 1.86613,0.44885 3.70828,0.9953 5.54286,1.55938 0.37858,0.75714 0.75715,1.51428 1.14719,2.29437 -1.25399,0.37857 -2.50798,0.75714 -3.80006,1.14719 -10.66101,4.05685 -18.4984,11.36346 -25.22021,20.3805 -1.9538,2.56326 -1.9538,2.56326 -4.96517,5.35953 -19.39737,20.92875 -25.42635,60.76439 -24.79898,87.9436 0.76878,19.0938 4.24994,39.4229 18.30571,53.47867 1.47432,1.47432 1.47432,1.47432 1.47432,2.62151 -8.88404,0.19524 -17.47949,-0.3591 -26.2957,-1.42503 -1.89811,-0.22101 -1.89811,-0.22101 -3.83457,-0.44647 -4.01046,-0.46879 -8.01963,-0.94771 -12.02888,-1.42667 -2.67072,-0.31283 -5.34153,-0.62502 -8.0124,-0.93658 -10.63646,-1.24685 -21.26784,-2.51103 -31.87927,-3.9569 -6.24624,-0.85103 -12.47591,-1.48724 -18.75831,-1.98965 -3.31991,-0.29843 -6.63863,-0.60789 -9.95724,-0.92033 -2.87947,-0.26974 -5.75919,-0.53221 -8.63975,-0.7898 -4.2387,-0.38374 -8.47185,-0.80938 -12.70428,-1.25677 -1.67712,-0.17133 -3.35554,-0.33045 -5.03506,-0.47655 -9.02771,-0.79394 -16.3093,-1.57824 -22.87352,-8.37571 -0.57239,-0.68987 -1.14477,-1.37973 -1.73451,-2.09049 -0.64559,-0.7589 -1.29117,-1.5178 -1.95632,-2.2997 -18.02356,-21.98393 -19.76107,-52.02064 -17.54587,-79.15064 2.84405,-20.24362 8.7952,-40.97567 19.50219,-58.50658 0.76596,-1.34584 1.52899,-2.69335 2.28989,-4.04205 5.24819,-9.18287 10.8659,-17.08529 18.35949,-24.63765 0.99376,-1.04107 1.98751,-2.08214 3.01137,-3.15477 0.89911,-0.85178 1.79822,-1.70357 2.72457,-2.58117 0.54273,-0.5368 1.08544,-1.07361 1.6446,-1.62668 13.40595,-12.50578 25.30467,-13.89724 42.02024,-8.41121 z"
       fill="#9841c1"
       id="path6"
       style="stroke-width:23.69763637;stroke:none;stroke-opacity:1;stroke-dasharray:none" />
    <path
       d="m 398.73309,254.97614 c 1.02194,0.30842 2.04389,0.61684 3.09679,0.93462 3.28004,1.02111 6.54546,2.07985 9.80907,3.15224 2.20381,0.72137 4.40853,1.43996 6.61425,2.15546 0.9616,0.31581 1.92318,0.63163 2.9139,0.95701 2.82851,0.83821 5.64004,1.44469 8.54006,1.97818 0,0.37857 0,0.75714 0,1.14718 -1.4152,0.25288 -1.4152,0.25288 -2.85901,0.51086 -21.69727,4.35949 -36.77071,19.44593 -48.76444,37.34634 -3.34616,5.20229 -6.32477,10.57507 -9.17751,16.06063 -0.6832,1.3043 -1.3664,2.60861 -2.07032,3.95242 -13.49653,27.29302 -18.97572,56.00621 -19.00925,86.24523 -0.003,1.31945 -0.003,1.31945 -0.007,2.66555 0.005,14.53769 0.74393,28.84378 6.17339,42.50497 0.48504,1.25402 0.97008,2.50804 1.46983,3.80006 5.73214,14.14742 13.93297,25.7914 24.91549,36.35152 -8.06687,0.33457 -15.70309,-0.47901 -23.6742,-1.70734 -4.71869,-0.71788 -9.4368,-1.2432 -14.18337,-1.73422 0,-0.75715 0,-1.51429 0,-2.29438 -1.31441,-1.20175 -2.68894,-2.33808 -4.08686,-3.44156 -18.5925,-16.03932 -26.10666,-44.70616 -27.86803,-68.32658 -2.46899,-41.54056 6.76589,-83.60447 27.36614,-119.81224 0.77923,-1.52227 1.5532,-3.04758 2.29438,-4.58875 0.75714,0 1.51428,0 2.29437,0 0.27801,-0.83108 0.55603,-1.66217 0.84246,-2.51843 1.64065,-3.63575 3.60169,-5.90811 6.32747,-8.81005 3.06913,-3.29357 6.03394,-6.57439 8.819,-10.10959 9.89105,-11.51253 25.25288,-20.96663 40.22328,-16.41913 z"
       fill="#eaeaf2"
       id="path7"
       style="stroke-width:23.69763637;stroke:none;stroke-opacity:1;stroke-dasharray:none" />
    <path
       d="m 577.6944,310.04116 c 4.44599,1.28838 8.89111,2.5798 13.33606,3.87176 1.25549,0.36378 2.511,0.72757 3.80454,1.10238 1.22,0.3549 2.44001,0.70982 3.69699,1.07549 1.11742,0.32441 2.23483,0.64881 3.38611,0.98306 2.31088,0.69674 4.60741,1.44214 6.89097,2.2238 3.75779,1.21603 7.4164,1.7456 11.33128,2.21539 0,0.37857 0,0.75714 0,1.14719 -2.20046,0.3904 -2.20046,0.3904 -4.44535,0.78869 -10.3981,2.36321 -17.98019,7.25517 -25.59663,14.6132 -2.07928,1.80593 -2.07928,1.80593 -4.37366,1.80593 -0.43476,0.98931 -0.43476,0.98931 -0.87832,1.99861 -1.58601,2.901 -3.44016,4.92967 -5.71801,7.32229 -4.79444,5.29638 -8.30852,10.8334 -11.75867,17.06442 -0.5649,0.96565 -1.1298,1.93131 -1.71183,2.92622 -8.7826,15.35818 -13.81836,31.56364 -17.79037,48.69723 -0.21608,0.87471 -0.43218,1.74942 -0.65481,2.65064 -5.94591,26.07908 -3.36602,58.19905 10.75656,81.36407 3.09152,4.56776 6.78415,8.50445 10.65518,12.41629 2.18683,2.22716 2.18683,2.22716 2.18683,3.37435 -9.39135,0.25494 -18.44017,-0.51033 -27.74761,-1.72078 -1.31095,-0.16416 -2.62191,-0.3283 -3.97258,-0.49741 -3.1938,-0.4009 -6.38652,-0.80879 -9.57857,-1.22338 1.13571,-1.13571 1.13571,-1.13571 2.29437,-2.29437 -1.13571,-0.94643 -2.27143,-1.89286 -3.44156,-2.86797 -15.12353,-15.21537 -20.3617,-39.57602 -20.64938,-60.22737 -0.0444,-1.40337 -0.0887,-2.80675 -0.13444,-4.25266 -0.49185,-25.65779 5.0219,-49.11316 15.04788,-72.60892 0.81786,-2.07722 1.63108,-4.15627 2.43777,-6.23784 7.92695,-19.59178 23.64415,-42.58042 43.30635,-51.76685 3.56595,-1.48033 5.26507,-1.64908 9.3209,-1.64908 0,-0.75715 0,-1.51429 0,-2.29438 z"
       fill="#e8e8f2"
       id="path8"
       style="stroke-width:23.69763637;stroke:none;stroke-opacity:1;stroke-dasharray:none" />
    <path
       d="m 779.46616,365.36692 c 2.29782,0.53107 4.60137,1.0242 6.90894,1.51157 11.22661,2.46369 11.22661,2.46369 13.87375,5.11082 -0.7778,0.37709 -1.5557,0.75418 -2.35713,1.1427 -8.43803,4.3125 -15.03046,9.39546 -21.73382,16.0651 -0.7763,0.73645 -1.55272,1.47289 -2.35265,2.23165 -22.85795,23.36185 -31.668,60.38934 -31.46333,91.98733 0.53137,21.04222 6.34259,39.81714 20.04973,56.06265 -9.11613,0.23806 -17.97874,-0.6929 -27.03061,-1.72079 -1.48544,-0.16415 -2.9709,-0.3283 -4.50137,-0.49742 -3.63857,-0.40278 -7.27649,-0.8107 -10.91396,-1.22336 2.27143,-1.13571 2.27143,-1.13571 4.58875,-2.29437 -0.51314,-0.51611 -1.02629,-1.03221 -1.55498,-1.56395 -16.08759,-17.11664 -18.61455,-41.7114 -18.15335,-64.22459 0.83162,-25.17957 8.50142,-61.16821 26.59146,-79.90432 0.75714,0 1.51428,0 2.29437,0 0.3076,-0.66694 0.61518,-1.33388 0.93209,-2.02103 5.42444,-10.22437 16.30176,-18.8984 27.13282,-22.76927 5.98121,-0.92077 11.86502,0.7595 17.68929,2.10728 z"
       fill="#e9e6f0"
       id="path9"
       style="stroke-width:23.69763637;stroke:none;stroke-opacity:1;stroke-dasharray:none" />
    <path
       d="m 933.32264,409.84651 c 5.61789,2.9962 8.12611,7.9788 10.32469,13.76625 1.54905,6.55079 1.35839,13.01971 1.36229,19.71729 0.0138,1.24588 0.0275,2.49177 0.0424,3.77542 0.0539,29.82421 -12.80215,62.02797 -32.37892,84.34295 -5.27935,4.99458 -9.93281,6.88313 -17.20781,6.88313 -4.95723,-1.72927 -7.53634,-5.12607 -10.0917,-9.54945 -10.62835,-23.63768 -6.23003,-49.43542 2.06138,-73.04808 0.38454,-1.11501 0.76896,-2.23003 1.16509,-3.37882 5.89849,-15.57694 16.3597,-31.51105 30.38258,-40.85961 4.99852,-2.05299 9.01471,-2.61182 14.33985,-1.64908 z"
       fill="#8e0b0a"
       id="path11"
       style="stroke-width:23.69763637;stroke:none;stroke-opacity:1;stroke-dasharray:none" />
    <path
       d="m 920.70357,392.63869 c 10.23923,1.25919 17.32392,2.6442 24.16265,10.82658 7.9647,11.55124 10.07541,23.33782 9.8228,37.14021 -0.0138,1.15489 -0.0138,1.15489 -0.0275,2.33309 -0.48549,36.15443 -12.4775,73.14271 -37.40004,99.98173 -6.58108,5.95374 -14.57502,11.36549 -23.8131,10.93413 -6.94817,-1.64624 -13.01726,-5.88483 -17.40502,-11.44498 -1.73891,-2.82899 -3.2439,-5.66911 -4.6694,-8.66665 -0.6625,-1.27768 -1.325,-2.55536 -2.00758,-3.87176 -7.0918,-20.56614 -5.91662,-45.66394 0.86039,-66.1067 0.3889,-1.37529 0.7778,-2.75057 1.17851,-4.16752 6.67113,-22.36335 20.40423,-48.84835 40.51007,-61.80475 5.52876,-2.85901 5.52876,-2.85901 8.78826,-2.85901 0,-0.75714 0,-1.51428 0,-2.29437 z m -8.03031,24.09094 c -0.75416,0.61222 -1.50832,1.22444 -2.28543,1.85522 -17.64191,15.94156 -26.24651,40.67299 -29.83583,63.53449 -0.31273,1.68139 -0.31273,1.68139 -0.63187,3.39676 -2.43789,16.49272 -0.69428,34.80709 9.16408,48.68378 2.02628,2.07696 3.66733,3.11332 6.38123,4.13167 7.37309,-0.12087 11.86812,-1.80099 17.20782,-6.88313 21.26014,-23.03183 32.26122,-56.80306 32.40806,-87.68817 0.0241,-1.23997 0.047,-2.47995 0.0711,-3.75749 0.0516,-10.71915 -1.67558,-19.26057 -8.38881,-27.86188 -8.87281,-5.91517 -16.67873,-1.54825 -24.09094,4.58875 z"
       fill="#df3f3c"
       id="path12"
       style="stroke-width:23.69763637;stroke:none;stroke-opacity:1;stroke-dasharray:none" />
    <path
       d="m 926.43951,394.93306 c -3.44156,2.29438 -3.44156,2.29438 -6.13481,3.7911 -23.31373,13.48512 -36.19848,42.62518 -43.35556,67.51829 -5.2477,23.44735 -8.13999,53.4901 3.60286,75.53066 3.1371,3.57229 6.44249,6.4456 10.32469,9.17751 -5.61698,-0.51064 -9.66001,-3.18891 -13.76626,-6.88313 -2.04176,-2.72889 -3.49915,-5.5981 -4.94724,-8.67561 -0.38225,-0.73422 -0.76449,-1.46845 -1.15843,-2.22491 -9.86628,-20.18568 -7.66379,-48.62988 -0.77745,-69.40263 0.38889,-1.37529 0.77779,-2.75057 1.1785,-4.16752 6.74593,-22.61441 21.23996,-51.27657 42.62973,-63.08637 4.25584,-1.8549 7.81086,-1.96015 12.40397,-1.57739 z"
       fill="#fcf2f2"
       id="path14"
       style="stroke-width:23.69763637;stroke:none;stroke-opacity:1;stroke-dasharray:none" />
    <path
       d="m 366.61183,264.15365 c 0.75714,0.37857 1.51429,0.75714 2.29437,1.14718 -6.05715,6.05715 -12.1143,12.11431 -18.355,18.35501 0,-3.44156 0,-3.44156 1.80592,-5.58358 0.80003,-0.76011 1.60005,-1.5202 2.42433,-2.30334 0.83404,-0.80298 1.66808,-1.60597 2.52739,-2.43329 1.19784,-1.13794 1.19784,-1.13794 2.41986,-2.29886 1.12739,-1.11917 2.25152,-2.24165 3.36986,-3.36986 1.75664,-1.75663 1.75664,-1.75663 3.51327,-3.51326 z"
       fill="#eef5df"
       id="path47"
       style="stroke-width:23.69763637;stroke:none;stroke-opacity:1;stroke-dasharray:none" />
    <path
       d="m 311.54681,363.95899 c 0.37857,0 0.75714,0 1.14719,0 0,4.54286 0,9.08573 0,13.76626 -1.13572,0.56785 -1.13572,0.56785 -2.29438,1.14718 -1.23106,-3.75343 -1.02401,-6.22863 -0.0717,-10.03789 0.2233,-0.91686 0.4466,-1.83371 0.67666,-2.77835 0.17894,-0.69208 0.35788,-1.38415 0.54223,-2.0972 z"
       fill="#73b51e"
       id="path71"
       style="stroke-width:23.69763637;stroke:none;stroke-opacity:1;stroke-dasharray:none" />
    <path
       d="m 718.79851,528.00686 c 2.27143,1.89286 4.54286,3.78572 6.88312,5.73594 -4.23791,1.41263 -7.11902,0.73916 -11.47187,0 0,-0.37857 0,-0.75715 0,-1.14719 1.89286,-0.37857 3.78572,-0.75714 5.73593,-1.14719 -0.37857,-1.13571 -0.75714,-2.27143 -1.14718,-3.44156 z"
       fill="#7f3fb0"
       id="path74"
       style="stroke-width:23.69763637;stroke:none;stroke-opacity:1;stroke-dasharray:none" />
    <path
       d="m 926.43951,394.93306 c -3.05794,2.03863 -5.76817,3.29872 -9.1775,4.58876 0,-0.75715 0,-1.51429 0,-2.29438 -0.75714,-0.37857 -1.51429,-0.75714 -2.29438,-1.14719 3.98453,-1.32816 7.29692,-1.22596 11.47188,-1.14719 z"
       fill="#fbe3e1"
       id="path75"
       style="stroke-width:23.69763637;stroke:none;stroke-opacity:1;stroke-dasharray:none" />
    <path
       d="m 913.82045,391.4915 c 3.40715,0.56786 3.40715,0.56786 6.88312,1.14719 0,0.75714 0,1.51429 0,2.29437 -1.89286,0.37858 -3.78572,0.75715 -5.73594,1.14719 -0.37857,-1.51429 -0.75714,-3.02857 -1.14718,-4.58875 z"
       fill="#f03a37"
       id="path80"
       style="stroke-width:23.69763637;stroke:none;stroke-opacity:1;stroke-dasharray:none" />
  </g>
</svg>
