<?xml version="1.0" encoding="UTF-8" standalone="no"?>
<svg
   version="1.1"
   width="1024"
   height="1024"
   id="svg81"
   sodipodi:docname="logo.svg"
   inkscape:version="1.4.3 (0d15f75, 2025-12-25)"
   xmlns:inkscape="http://www.inkscape.org/namespaces/inkscape"
   xmlns:sodipodi="http://sodipodi.sourceforge.net/DTD/sodipodi-0.dtd"
   xmlns="http://www.w3.org/2000/svg"
   xmlns:svg="http://www.w3.org/2000/svg">
  <defs
     id="defs81" />
  <sodipodi:namedview
     id="namedview81"
     pagecolor="#ffffff"
     bordercolor="#666666"
     borderopacity="1.0"
     inkscape:showpageshadow="2"
     inkscape:pageopacity="0.0"
     inkscape:pagecheckerboard="0"
     inkscape:deskcolor="#d1d1d1"
     inkscape:zoom="1.1000875"
     inkscape:cx="509.50494"
     inkscape:cy="603.13386"
     inkscape:window-width="2837"
     inkscape:window-height="1186"
     inkscape:window-x="2240"
     inkscape:window-y="804"
     inkscape:window-maximized="0"
     inkscape:current-layer="svg81" />
  <path
     id="path2-3"
     style="stroke:#ffffff;stroke-width:80.0125745;stroke-dasharray:none;stroke-opacity:1"
     d="m 256.18516,215.15932 c -9.04431,0.0155 -16.95495,1.86201 -22.64648,6.54687 -5.09957,5.25894 -9.87923,10.41912 -14.34766,15.50391 -21.34604,10.29169 -88.07571,41.16256 -97.63672,46.44531 h -5.46093 c -19.4653,-19.65481 -49.06989,-6.69739 -51.1504,11.63477 -0.10362,218.40391 0.6662,389.81702 0.79883,608.22461 -8.47015,31.64223 42.01236,35.55522 56.07227,15.66992 -1.01594,-135.06844 -0.31022,-270.1802 -2.0957,-405.22266 3.08974,-46.29801 2.5456,-92.6729 1.83593,-139.05859 1.21535,-31.37383 -5.12848,-1.189 0,-28.59375 19.04613,22.93186 50.33534,81.20712 69.82617,103.75977 13.27081,18.44756 31.06442,23.30674 52.44336,27.10156 l 3.76758,0.64648 c 13.5462,2.32457 27.13036,4.38217 40.73047,6.36524 2.50761,0.36333 5.01584,0.72647 7.52344,1.08984 14.79223,2.17039 29.44426,4.17269 44.38086,4.82813 v 1.19531 c 4.74657,0.49102 9.4649,1.01649 14.18359,1.73437 7.46915,1.15098 14.64536,1.93854 22.15625,1.75782 4.19964,2.59318 10.04123,3.10367 26.62891,4.55468 2.64319,0.23034 5.2857,0.47867 7.92578,0.74219 5.30048,0.54866 10.60057,1.09674 15.9043,1.61328 8.10061,0.78542 16.14589,1.71632 24.20117,2.88281 13.01661,1.93764 26.06329,3.58408 39.13086,5.13477 2.24958,0.26511 4.49849,0.52957 6.74804,0.79492 3.20108,0.38363 6.40321,0.76696 9.60547,1.14063 1.01889,0.11819 2.00718,0.23293 2.9961,0.34765 6.26988,0.75569 12.36897,1.11932 18.64062,1.11328 l -1.1289,1.12696 c 3.19205,0.41459 6.38432,0.82371 9.57812,1.22461 1.35067,0.16911 2.66171,0.33193 3.97266,0.49609 9.30744,1.21045 18.35669,1.97564 27.74804,1.7207 0,-0.28988 1.3e-4,-0.50529 -0.0352,-0.70312 5.22996,3.10489 11.00603,3.69315 17.75976,4.28711 1.67952,0.1461 3.35804,0.30523 5.03516,0.47656 4.23243,0.44739 8.46638,0.87212 12.70508,1.25586 2.88056,0.25759 5.7592,0.52128 8.63867,0.79102 3.31861,0.31244 6.63907,0.62149 9.95898,0.91992 6.2824,0.50241 12.51158,1.1392 18.75782,1.99023 10.61143,1.44587 21.24244,2.71018 31.8789,3.95703 2.67087,0.31156 5.341,0.62272 8.01172,0.93555 4.00925,0.47896 8.01884,0.95894 12.0293,1.42773 1.93646,0.22546 1.93587,0.22431 3.83398,0.44532 7.64756,0.92463 15.12956,1.46544 22.77735,1.46484 -0.55383,0.27692 -1.12079,0.55942 -2.2168,1.10742 3.63747,0.41266 7.27549,0.82183 10.91406,1.22461 1.53047,0.16912 3.01647,0.33195 4.50197,0.4961 9.0518,1.02789 17.9132,1.95876 27.0293,1.7207 -0.0656,-0.0778 -0.1301,-0.15455 -0.1953,-0.23242 3.0329,1.89291 6.3624,2.73148 11.0625,3.11914 2.6556,0.13668 5.31,0.31342 7.9609,0.52344 1.5153,0.12492 2.9862,0.24592 4.457,0.36718 9.4656,0.71669 18.8738,1.7889 28.2989,2.91211 4.2882,0.51417 8.5771,1.02038 12.8672,1.51758 7.6666,0.88798 15.3344,1.76709 22.9941,2.71289 12.1243,1.50246 24.1939,2.98742 36.4199,3.24414 1.0832,0.0112 2.1344,0.0229 3.1856,0.0332 1.1207,0.0186 2.1928,0.0147 3.2246,-0.0176 0.2596,0.0694 0.521,0.13514 0.7832,0.19726 6.158,0.28754 11.7632,-2.02247 16.7656,-5.35742 0.1394,-0.0835 0.2793,-0.16791 0.4199,-0.25391 0.7176,-0.5424 1.4129,-1.06924 2.1094,-1.5957 0.5814,-0.42772 1.1558,-0.8665 1.7227,-1.31641 0.958,-0.78445 1.8899,-1.59336 2.7949,-2.41211 0.241,-0.2596 0.4371,-0.55295 0.6758,-0.81445 11.9989,-11.08255 20.2998,-27.04127 26.1972,-43.2832 0.388,-1.02068 0.8255,-2.01764 1.1914,-3.04688 1.133,-3.29994 2.0801,-6.42507 3.0137,-9.67382 0.4374,-1.54221 0.8768,-3.07772 1.2676,-4.63282 0.7107,-2.69315 1.6278,-5.51942 2.2129,-8.0957 2.9712,-14.45182 4.7551,-31.44034 2.0683,-46.91211 -0.6795,-4.52576 -1.827,-8.87468 -3.6035,-13.12695 -1.2914,-3.28626 -2.872,-6.42719 -4.7832,-9.375 -5.9256,-7.47982 -13.4828,-10.3978 -22.7383,-11.74219 -1.0354,-0.13405 -2.0418,-0.26247 -3.0468,-0.39258 -2.2092,-0.31557 -4.4176,-0.63209 -6.627,-0.94726 -5.9453,-0.81489 -11.8849,-1.65803 -17.8223,-2.5293 -1.2169,-0.18003 -2.3989,-0.3565 -3.58,-0.53125 -10.3339,-1.52637 -20.518,-3.33455 -30.709,-5.64649 -13.5143,-3.07424 -27.0636,-5.51694 -40.7305,-7.79687 -2.4624,-0.39893 -4.9231,-0.81023 -7.3809,-1.23633 -4.6807,-1.01745 -8.823,-2.28818 -13.3222,-1.8418 -2.0479,-1.97454 -3.0239,-2.18948 -13.1699,-4.41601 -2.3075,-0.48737 -4.6104,-0.98065 -6.9082,-1.51172 -5.0306,-1.1641 -10.1063,-2.57572 -15.25,-2.3457 -0.2277,-0.45525 -0.4526,-0.90701 -0.6778,-1.35742 -1.8346,-0.56408 -3.6769,-1.10975 -5.5429,-1.5586 -1.6212,-0.37009 -3.2402,-0.74827 -4.8575,-1.13476 -0.8791,-0.21066 -1.7326,-0.41664 -2.5859,-0.6211 -4.3707,-1.03221 -8.7299,-2.10495 -13.084,-3.20508 -0.8891,-0.2255 -1.7523,-0.44324 -2.6152,-0.66211 -19.4594,-4.9223 -38.84485,-9.99547 -58.08792,-15.71093 -5.39638,-1.60429 -10.7882,-3.19724 -16.22656,-4.6543 -8.94074,-2.34772 -17.76029,-4.90225 -26.56055,-7.72851 -6.54188,-2.14704 -12.3456,-3.24108 -17.79101,-3.02735 1.7667,-0.31345 1.92638,-0.34159 3.95312,-0.70117 v -1.14648 c -3.91488,-0.4698 -7.57424,-0.99882 -11.33203,-2.21485 -2.28356,-0.78166 -4.57975,-1.52787 -6.89063,-2.22461 -1.15127,-0.33425 -2.26929,-0.65801 -3.38671,-0.98242 -1.25698,-0.36567 -2.47727,-0.72127 -3.69727,-1.07617 -1.29354,-0.37481 -2.5492,-0.73778 -3.80469,-1.10156 -4.44495,-1.29196 -8.88994,-2.58467 -13.33593,-3.87305 -6.53117,-2.24689 -13.10011,-4.28489 -19.73829,-6.19141 -9.37711,-2.68334 -18.7239,-5.43288 -28.00976,-8.41797 -8.49538,-2.7454 -16.98305,-5.41877 -25.59961,-7.75976 -22.19464,-6.33037 -22.19425,-6.33127 -44.22656,-13.21289 -0.75961,-0.23721 -1.4971,-0.46704 -2.23438,-0.69727 -3.70697,-1.15507 -7.41383,-2.3081 -11.10156,-3.52344 -0.84826,-0.28129 -1.67083,-0.5551 -2.49414,-0.82812 -1.63423,-0.53301 -3.26829,-1.06609 -4.90234,-1.59961 -4.12661,-1.40707 -8.0447,-2.07894 -11.7793,-2.13477 0.75001,-0.13401 0.98853,-0.17646 2.09961,-0.375 v -1.14648 c -2.90002,-0.53349 -5.71251,-1.14031 -8.54102,-1.97852 -0.99072,-0.32538 -1.95246,-0.64122 -2.91406,-0.95703 -2.20572,-0.7155 -4.40947,-1.43488 -6.61328,-2.15625 -3.26361,-1.07239 -6.52856,-2.13123 -9.8086,-3.15234 -1.0529,-0.31778 -2.07571,-0.62517 -3.09765,-0.93359 -3.5183,-1.06874 -7.05753,-1.36395 -10.54297,-1.04102 l 0.21875,-0.10547 v -2.29492 c -4.98552,-1.41886 -9.96735,-2.85199 -14.94141,-4.31055 l -2.41015,-0.70898 c -9.99943,-2.92291 -19.96521,-5.95528 -29.88868,-9.12695 -18.22201,-5.82826 -55.55651,-22.27516 -82.68945,-22.22852 z m -57.43555,47.90039 c -32.31617,46.36104 -37.80379,89.58275 -22.80859,149.51563 -19.79279,-34.04314 -51.79041,-78.17541 -54.38672,-89.24024 -0.12066,-15.99963 0,-7.8e-4 0,-13.29492 24.09706,-20.13673 56.20302,-32.71464 77.19531,-46.98047 z m 385.73438,76.79687 c -0.65651,0.68778 -1.30311,1.36611 -1.94922,2.04297 0.006,-0.011 0.0116,-0.0222 0.0176,-0.0332 0.44356,-1.0093 0.44415,-1.00874 0.87891,-1.99805 0.41866,0 0.76029,-7.4e-4 1.05273,-0.0117 z m 147.0449,47.95508 c -0.0366,0.0794 -0.0747,0.15891 -0.1113,0.23828 h -0.1055 c 0.0731,-0.0793 0.1462,-0.15842 0.2168,-0.23828 z" />
  <g
     id="g1"
     style="stroke:none;stroke-opacity:1;stroke-width:23.69763637;stroke-dasharray:none">
    <path
       d="m 341.16868,237.38742 c 9.92347,3.17167 19.88907,6.2053 29.8885,9.12821 l 2.41088,0.70803 c 4.97406,1.45856 9.95482,2.89206 14.94034,4.31092 v 2.29437 l -3.73285,1.80593 c -1.64777,0.80774 -3.29534,1.61586 -4.94276,2.42433 l -2.44898,1.1808 c -7.23933,3.56962 -14.01617,7.49787 -19.20419,13.80434 -3.66413,4.37706 -7.4606,8.60589 -11.31504,12.81625 -1.83762,2.24738 -3.07081,4.32929 -4.2437,6.97274 h -2.29437 l -0.2868,1.79248 c -0.95957,3.1186 -2.46522,5.69361 -4.10814,8.4986 -22.10982,38.38281 -31.52371,93.0708 -20.6281,136.46831 4.86207,17.97164 11.46554,33.98572 25.02304,47.11536 1.14856,1.14582 2.296,2.29276 3.44156,3.44157 -15.33402,-0.60073 -30.35824,-2.64962 -45.52902,-4.87555 -2.5076,-0.36337 -5.01521,-0.72672 -7.52282,-1.09005 -13.60011,-1.98307 -27.18457,-4.0421 -40.73077,-6.36667 l -3.7673,-0.64642 c -21.37894,-3.79482 -39.1741,-8.65363 -52.44491,-27.10119 -3.46423,-5.20845 -6.56112,-10.59356 -9.4643,-16.13233 -27.53251,-89.8596 -16.1686,-142.31917 51.62346,-212.22976 22.76614,-18.73947 81.04025,7.90873 105.33627,15.67973 z"
       fill="#85b221"
       id="path2"
       sodipodi:nodetypes="cccccccccccccccccccsccccc"
       style="stroke-width:23.69763637;stroke:none;stroke-opacity:1;stroke-dasharray:none" />
    <path
       d="m 118.38662,283.65584 c 2.05272,0 3.62586,0 5.46122,0 12.95587,-7.15852 130.8855,-61.3006 98.61828,-47.55721 -4.22012,29.5736 -61.11817,42.60552 -98.61828,73.94253 0,13.29414 -0.12066,-2.70549 0,13.29414 3.8558,16.43248 72.55878,105.79668 69.82541,126.73448 -19.49083,-22.55265 -50.77928,-80.82759 -69.82541,-103.75945 -5.12848,27.40475 1.21535,-2.78062 0,28.59321 0.70967,46.38569 1.25439,92.76078 -1.83536,139.05879 1.78548,135.04246 1.07957,270.15381 2.09551,405.22225 -14.05991,19.8853 -64.54285,15.97207 -56.072703,-15.67016 -0.132626,-218.40759 -0.901333,-389.8203 -0.797719,-608.22421 2.080517,-18.33216 31.683765,-31.28918 51.149052,-11.63437 z"
       fill="#383d44"
       id="path3"
       sodipodi:nodetypes="ccccccccccccc"
       style="stroke-width:23.69763637;stroke:none;stroke-opacity:1;stroke-dasharray:none" />
    <path
       d="m 439.38656,267.81031 c 1.63406,0.53352 3.26821,1.06677 4.90244,1.59978 0.82331,0.27302 1.64664,0.54605 2.4949,0.82734 3.68773,1.21534 7.39409,2.36884 11.10106,3.52391 0.73728,0.23023 1.47455,0.46046 2.23416,0.69767 22.03231,6.88162 22.03231,6.88162 44.22695,13.21199 8.61656,2.34099 17.10461,5.01492 25.59999,7.76032 9.28586,2.98509 18.63209,5.73516 28.0092,8.4185 6.63818,1.90652 13.20797,3.94445 19.73914,6.19134 0,0.75714 0,1.51429 0,2.29438 -0.79116,0.23808 -1.58232,0.47617 -2.39744,0.72147 -8.202,2.689 -14.15081,6.13473 -20.54632,11.89759 -0.82221,0.72905 -1.64443,1.4581 -2.49155,2.20923 -5.46108,5.14155 -10.04749,10.78136 -14.50117,16.79107 -0.52331,0.70317 -1.04661,1.40634 -1.58578,2.13081 -5.4547,7.55172 -9.1556,15.59977 -12.32387,24.32621 -0.43672,1.1927 -0.43672,1.1927 -0.88224,2.40949 -0.59452,1.6259 -1.18718,3.25248 -1.77792,4.87974 -0.77756,2.11316 -1.59095,4.21305 -2.40809,6.31122 -8.0331,21.08383 -10.38681,42.39464 -9.9169,64.83852 0.0193,1.49507 0.0384,2.99013 0.0583,4.5305 0.64827,18.91077 6.76613,41.91211 20.59113,55.62517 1.13572,0.97008 2.27143,1.94018 3.44156,2.93967 0,0.37857 0,0.75714 0,1.14719 C 525.86105,513.20114 519.03793,512.84826 512,512 c -0.98892,-0.11472 -1.97784,-0.22943 -2.99673,-0.34762 -3.20226,-0.37367 -6.40332,-0.75651 -9.6044,-1.14014 -2.24955,-0.26535 -4.49911,-0.53058 -6.74869,-0.79569 -13.06757,-1.55069 -26.11353,-3.19782 -39.13014,-5.13546 -8.05528,-1.16649 -16.10065,-2.0964 -24.20126,-2.88182 -5.30373,-0.51654 -10.60391,-1.06588 -15.90439,-1.61454 -2.64008,-0.26352 -5.28182,-0.51095 -7.92501,-0.74129 -25.60759,-2.24003 -25.60759,-2.24003 -33.48691,-11.11845 -0.6432,-0.87915 -1.28639,-1.7583 -1.94906,-2.66408 -0.75853,-0.96029 -1.51706,-1.92059 -2.29857,-2.90998 -5.25575,-6.84945 -8.99024,-14.52635 -12.61487,-22.32816 -0.36675,-0.78376 -0.73349,-1.56753 -1.11134,-2.37503 -6.83629,-15.24492 -7.42959,-31.81315 -7.42087,-48.24463 -4.6e-4,-0.89942 -9.3e-4,-1.79884 -10e-4,-2.72551 0.11894,-40.48686 11.77368,-82.77564 38.3605,-114.14426 0.82221,-0.99375 1.64442,-1.9875 2.49154,-3.01137 13.84902,-16.1081 29.93134,-29.51202 51.92816,-22.01166 z"
       fill="#308ae6"
       id="path4"
       style="stroke-width:23.69763637;stroke:none;stroke-opacity:1;stroke-dasharray:none" />
    <path
       d="m 812.86791,373.13649 c 2.45785,0.4261 4.91811,0.83788 7.38055,1.23681 13.66691,2.27993 27.21543,4.72306 40.72965,7.7973 10.19104,2.31193 20.37577,4.11994 30.70964,5.64631 1.18115,0.17475 2.36229,0.34949 3.57923,0.52952 5.93738,0.87127 11.87741,1.71569 17.82271,2.53058 2.20937,0.31517 4.41874,0.63053 6.62799,0.9461 1.00494,0.13011 2.00999,0.26022 3.04533,0.39427 9.25551,1.34439 16.81398,4.26101 22.73955,11.74083 12.61746,19.46086 10.8477,47.38446 6.31849,69.41383 -5.72906,25.22857 -17.2521,57.22007 -39.07609,73.27662 -0.69646,0.52646 -1.39303,1.0529 -2.1106,1.5953 -7.23646,4.42577 -12.82739,5.56997 -21.19166,5.43123 -1.05128,-0.0103 -2.10245,-0.0216 -3.18562,-0.0328 -12.22604,-0.25672 -24.29664,-1.74221 -36.42092,-3.24467 -7.65966,-0.9458 -15.32735,-1.82427 -22.99389,-2.71225 -4.29014,-0.4972 -8.57902,-1.00384 -12.86721,-1.51801 -9.42506,-1.12321 -18.83349,-2.19441 -28.29906,-2.9111 -1.47081,-0.12126 -2.9415,-0.24253 -4.45682,-0.36746 -2.65092,-0.21002 -5.30471,-0.38763 -7.96034,-0.52431 -7.85594,-0.64796 -11.88555,-2.55612 -17.09528,-8.54088 -15.35606,-20.23853 -17.03998,-49.33127 -13.96421,-73.67738 1.26374,-7.34549 3.11083,-14.4933 5.27885,-21.62012 0.37737,-1.25134 0.37737,-1.25134 0.76237,-2.52795 5.98872,-19.12357 15.73316,-36.35466 30.21171,-50.24269 0.78972,-0.78524 1.57933,-1.57048 2.39292,-2.37952 3.96479,-3.73013 8.27409,-6.83922 12.87902,-9.73765 0.94195,-0.59299 1.88402,-1.186 2.85454,-1.79697 5.706,-1.55366 10.5999,0.0584 16.28915,1.29507 z"
       fill="#e43132"
       id="path5"
       style="stroke-width:23.69763637;stroke:none;stroke-opacity:1;stroke-dasharray:none" />
    <path
       d="m 633.9783,326.38859 c 8.80026,2.82627 17.62131,5.38011 26.56205,7.72783 5.43836,1.45706 10.83005,3.05084 16.22643,4.65513 19.24307,5.71546 38.62851,10.7874 58.08787,15.7097 0.86292,0.21886 1.72583,0.43772 2.61489,0.66322 4.35412,1.10013 8.71258,2.17353 13.08333,3.20574 0.85331,0.20446 1.70658,0.40892 2.58567,0.61958 1.61731,0.38649 3.23634,0.76536 4.85743,1.13545 1.86613,0.44885 3.70828,0.9953 5.54286,1.55938 0.37858,0.75714 0.75715,1.51428 1.14719,2.29437 -1.25399,0.37857 -2.50798,0.75714 -3.80006,1.14719 -10.66101,4.05685 -18.4984,11.36346 -25.22021,20.3805 -1.9538,2.56326 -1.9538,2.56326 -4.96517,5.35953 -19.39737,20.92875 -25.42635,60.76439 -24.79898,87.9436 0.76878,19.0938 4.24994,39.4229 18.30571,53.47867 1.47432,1.47432 1.47432,1.47432 1.47432,2.62151 -8.88404,0.19524 -17.47949,-0.3591 -26.2957,-1.42503 -1.89811,-0.22101 -1.89811,-0.22101 -3.83457,-0.44647 -4.01046,-0.46879 -8.01963,-0.94771 -12.02888,-1.42667 -2.67072,-0.31283 -5.34153,-0.62502 -8.0124,-0.93658 -10.63646,-1.24685 -21.26784,-2.51103 -31.87927,-3.9569 -6.24624,-0.85103 -12.47591,-1.48724 -18.75831,-1.98965 -3.31991,-0.29843 -6.63863,-0.60789 -9.95724,-0.92033 -2.87947,-0.26974 -5.75919,-0.53221 -8.63975,-0.7898 -4.2387,-0.38374 -8.47185,-0.80938 -12.70428,-1.25677 -1.67712,-0.17133 -3.35554,-0.33045 -5.03506,-0.47655 -9.02771,-0.79394 -16.3093,-1.57824 -22.87352,-8.37571 -0.57239,-0.68987 -1.14477,-1.37973 -1.73451,-2.09049 -0.64559,-0.7589 -1.29117,-1.5178 -1.95632,-2.2997 -18.02356,-21.98393 -19.76107,-52.02064 -17.54587,-79.15064 2.84405,-20.24362 8.7952,-40.97567 19.50219,-58.50658 0.76596,-1.34584 1.52899,-2.69335 2.28989,-4.04205 5.24819,-9.18287 10.8659,-17.08529 18.35949,-24.63765 0.99376,-1.04107 1.98751,-2.08214 3.01137,-3.15477 0.89911,-0.85178 1.79822,-1.70357 2.72457,-2.58117 0.54273,-0.5368 1.08544,-1.07361 1.6446,-1.62668 13.40595,-12.50578 25.30467,-13.89724 42.02024,-8.41121 z"
       fill="#9841c1"
       id="path6"
       style="stroke-width:23.69763637;stroke:none;stroke-opacity:1;stroke-dasharray:none" />
    <path
       d="m 398.73309,254.97614 c 1.02194,0.30842 2.04389,0.61684 3.09679,0.93462 3.28004,1.02111 6.54546,2.07985 9.80907,3.15224 2.20381,0.72137 4.40853,1.43996 6.61425,2.15546 0.9616,0.31581 1.92318,0.63163 2.9139,0.95701 2.82851,0.83821 5.64004,1.44469 8.54006,1.97818 0,0.37857 0,0.75714 0,1.14718 -1.4152,0.25288 -1.4152,0.25288 -2.85901,0.51086 -21.69727,4.35949 -36.77071,19.44593 -48.76444,37.34634 -3.34616,5.20229 -6.32477,10.57507 -9.17751,16.06063 -0.6832,1.3043 -1.3664,2.60861 -2.07032,3.95242 -13.49653,27.29302 -18.97572,56.00621 -19.00925,86.24523 -0.003,1.31945 -0.003,1.31945 -0.007,2.66555 0.005,14.53769 0.74393,28.84378 6.17339,42.50497 0.48504,1.25402 0.97008,2.50804 1.46983,3.80006 5.73214,14.14742 13.93297,25.7914 24.91549,36.35152 -8.06687,0.33457 -15.70309,-0.47901 -23.6742,-1.70734 -4.71869,-0.71788 -9.4368,-1.2432 -14.18337,-1.73422 0,-0.75715 0,-1.51429 0,-2.29438 -1.31441,-1.20175 -2.68894,-2.33808 -4.08686,-3.44156 -18.5925,-16.03932 -26.10666,-44.70616 -27.86803,-68.32658 -2.46899,-41.54056 6.76589,-83.60447 27.36614,-119.81224 0.77923,-1.52227 1.5532,-3.04758 2.29438,-4.58875 0.75714,0 1.51428,0 2.29437,0 0.27801,-0.83108 0.55603,-1.66217 0.84246,-2.51843 1.64065,-3.63575 3.60169,-5.90811 6.32747,-8.81005 3.06913,-3.29357 6.03394,-6.57439 8.819,-10.10959 9.89105,-11.51253 25.25288,-20.96663 40.22328,-16.41913 z"
       fill="#eaeaf2"
       id="path7"
       style="stroke-width:23.69763637;stroke:none;stroke-opacity:1;stroke-dasharray:none" />
    <path
       d="m 577.6944,310.04116 c 4.44599,1.28838 8.89111,2.5798 13.33606,3.87176 1.25549,0.36378 2.511,0.72757 3.80454,1.10238 1.22,0.3549 2.44001,0.70982 3.69699,1.07549 1.11742,0.32441 2.23483,0.64881 3.38611,0.98306 2.31088,0.69674 4.60741,1.44214 6.89097,2.2238 3.75779,1.21603 7.4164,1.7456 11.33128,2.21539 0,0.37857 0,0.75714 0,1.14719 -2.20046,0.3904 -2.20046,0.3904 -4.44535,0.78869 -10.3981,2.36321 -17.98019,7.25517 -25.59663,14.6132 -2.07928,1.80593 -2.07928,1.80593 -4.37366,1.80593 -0.43476,0.98931 -0.43476,0.98931 -0.87832,1.99861 -1.58601,2.901 -3.44016,4.92967 -5.71801,7.32229 -4.79444,5.29638 -8.30852,10.8334 -11.75867,17.06442 -0.5649,0.96565 -1.1298,1.93131 -1.71183,2.92622 -8.7826,15.35818 -13.81836,31.56364 -17.79037,48.69723 -0.21608,0.87471 -0.43218,1.74942 -0.65481,2.65064 -5.94591,26.07908 -3.36602,58.19905 10.75656,81.36407 3.09152,4.56776 6.78415,8.50445 10.65518,12.41629 2.18683,2.22716 2.18683,2.22716 2.18683,3.37435 -9.39135,0.25494 -18.44017,-0.51033 -27.74761,-1.72078 -1.31095,-0.16416 -2.62191,-0.3283 -3.97258,-0.49741 -3.1938,-0.4009 -6.38652,-0.80879 -9.57857,-1.22338 1.13571,-1.13571 1.13571,-1.13571 2.29437,-2.29437 -1.13571,-0.94643 -2.27143,-1.89286 -3.44156,-2.86797 -15.12353,-15.21537 -20.3617,-39.57602 -20.64938,-60.22737 -0.0444,-1.40337 -0.0887,-2.80675 -0.13444,-4.25266 -0.49185,-25.65779 5.0219,-49.11316 15.04788,-72.60892 0.81786,-2.07722 1.63108,-4.15627 2.43777,-6.23784 7.92695,-19.59178 23.64415,-42.58042 43.30635,-51.76685 3.56595,-1.48033 5.26507,-1.64908 9.3209,-1.64908 0,-0.75715 0,-1.51429 0,-2.29438 z"
       fill="#e8e8f2"
       id="path8"
       style="stroke-width:23.69763637;stroke:none;stroke-opacity:1;stroke-dasharray:none" />
    <path
       d="m 779.46616,365.36692 c 2.29782,0.53107 4.60137,1.0242 6.90894,1.51157 11.22661,2.46369 11.22661,2.46369 13.87375,5.11082 -0.7778,0.37709 -1.5557,0.75418 -2.35713,1.1427 -8.43803,4.3125 -15.03046,9.39546 -21.73382,16.0651 -0.7763,0.73645 -1.55272,1.47289 -2.35265,2.23165 -22.85795,23.36185 -31.668,60.38934 -31.46333,91.98733 0.53137,21.04222 6.34259,39.81714 20.04973,56.06265 -9.11613,0.23806 -17.97874,-0.6929 -27.03061,-1.72079 -1.48544,-0.16415 -2.9709,-0.3283 -4.50137,-0.49742 -3.63857,-0.40278 -7.27649,-0.8107 -10.91396,-1.22336 2.27143,-1.13571 2.27143,-1.13571 4.58875,-2.29437 -0.51314,-0.51611 -1.02629,-1.03221 -1.55498,-1.56395 -16.08759,-17.11664 -18.61455,-41.7114 -18.15335,-64.22459 0.83162,-25.17957 8.50142,-61.16821 26.59146,-79.90432 0.75714,0 1.51428,0 2.29437,0 0.3076,-0.66694 0.61518,-1.33388 0.93209,-2.02103 5.42444,-10.22437 16.30176,-18.8984 27.13282,-22.76927 5.98121,-0.92077 11.86502,0.7595 17.68929,2.10728 z"
       fill="#e9e6f0"
       id="path9"
       style="stroke-width:23.69763637;stroke:none;stroke-opacity:1;stroke-dasharray:none" />
    <path
       d="m 933.32264,409.84651 c 5.61789,2.9962 8.12611,7.9788 10.32469,13.76625 1.54905,6.55079 1.35839,13.01971 1.36229,19.71729 0.0138,1.24588 0.0275,2.49177 0.0424,3.77542 0.0539,29.82421 -12.80215,62.02797 -32.37892,84.34295 -5.27935,4.99458 -9.93281,6.88313 -17.20781,6.88313 -4.95723,-1.72927 -7.53634,-5.12607 -10.0917,-9.54945 -10.62835,-23.63768 -6.23003,-49.43542 2.06138,-73.04808 0.38454,-1.11501 0.76896,-2.23003 1.16509,-3.37882 5.89849,-15.57694 16.3597,-31.51105 30.38258,-40.85961 4.99852,-2.05299 9.01471,-2.61182 14.33985,-1.64908 z"
       fill="#8e0b0a"
       id="path11"
       style="stroke-width:23.69763637;stroke:none;stroke-opacity:1;stroke-dasharray:none" />
    <path
       d="m 920.70357,392.63869 c 10.23923,1.25919 17.32392,2.6442 24.16265,10.82658 7.9647,11.55124 10.07541,23.33782 9.8228,37.14021 -0.0138,1.15489 -0.0138,1.15489 -0.0275,2.33309 -0.48549,36.15443 -12.4775,73.14271 -37.40004,99.98173 -6.58108,5.95374 -14.57502,11.36549 -23.8131,10.93413 -6.94817,-1.64624 -13.01726,-5.88483 -17.40502,-11.44498 -1.73891,-2.82899 -3.2439,-5.66911 -4.6694,-8.66665 -0.6625,-1.27768 -1.325,-2.55536 -2.00758,-3.87176 -7.0918,-20.56614 -5.91662,-45.66394 0.86039,-66.1067 0.3889,-1.37529 0.7778,-2.75057 1.17851,-4.16752 6.67113,-22.36335 20.40423,-48.84835 40.51007,-61.80475 5.52876,-2.85901 5.52876,-2.85901 8.78826,-2.85901 0,-0.75714 0,-1.51428 0,-2.29437 z m -8.03031,24.09094 c -0.75416,0.61222 -1.50832,1.22444 -2.28543,1.85522 -17.64191,15.94156 -26.24651,40.67299 -29.83583,63.53449 -0.31273,1.68139 -0.31273,1.68139 -0.63187,3.39676 -2.43789,16.49272 -0.69428,34.80709 9.16408,48.68378 2.02628,2.07696 3.66733,3.11332 6.38123,4.13167 7.37309,-0.12087 11.86812,-1.80099 17.20782,-6.88313 21.26014,-23.03183 32.26122,-56.80306 32.40806,-87.68817 0.0241,-1.23997 0.047,-2.47995 0.0711,-3.75749 0.0516,-10.71915 -1.67558,-19.26057 -8.38881,-27.86188 -8.87281,-5.91517 -16.67873,-1.54825 -24.09094,4.58875 z"
       fill="#df3f3c"
       id="path12"
       style="stroke-width:23.69763637;stroke:none;stroke-opacity:1;stroke-dasharray:none" />
    <path
       d="m 926.43951,394.93306 c -3.44156,2.29438 -3.44156,2.29438 -6.13481,3.7911 -23.31373,13.48512 -36.19848,42.62518 -43.35556,67.51829 -5.2477,23.44735 -8.13999,53.4901 3.60286,75.53066 3.1371,3.57229 6.44249,6.4456 10.32469,9.17751 -5.61698,-0.51064 -9.66001,-3.18891 -13.76626,-6.88313 -2.04176,-2.72889 -3.49915,-5.5981 -4.94724,-8.67561 -0.38225,-0.73422 -0.76449,-1.46845 -1.15843,-2.22491 -9.86628,-20.18568 -7.66379,-48.62988 -0.77745,-69.40263 0.38889,-1.37529 0.77779,-2.75057 1.1785,-4.16752 6.74593,-22.61441 21.23996,-51.27657 42.62973,-63.08637 4.25584,-1.8549 7.81086,-1.96015 12.40397,-1.57739 z"
       fill="#fcf2f2"
       id="path14"
       style="stroke-width:23.69763637;stroke:none;stroke-opacity:1;stroke-dasharray:none" />
    <path
       d="m 366.61183,264.15365 c 0.75714,0.37857 1.51429,0.75714 2.29437,1.14718 -6.05715,6.05715 -12.1143,12.11431 -18.355,18.35501 0,-3.44156 0,-3.44156 1.80592,-5.58358 0.80003,-0.76011 1.60005,-1.5202 2.42433,-2.30334 0.83404,-0.80298 1.66808,-1.60597 2.52739,-2.43329 1.19784,-1.13794 1.19784,-1.13794 2.41986,-2.29886 1.12739,-1.11917 2.25152,-2.24165 3.36986,-3.36986 1.75664,-1.75663 1.75664,-1.75663 3.51327,-3.51326 z"
       fill="#eef5df"
       id="path47"
       style="stroke-width:23.69763637;stroke:none;stroke-opacity:1;stroke-dasharray:none" />
    <path
       d="m 311.54681,363.95899 c 0.37857,0 0.75714,0 1.14719,0 0,4.54286 0,9.08573 0,13.76626 -1.13572,0.56785 -1.13572,0.56785 -2.29438,1.14718 -1.23106,-3.75343 -1.02401,-6.22863 -0.0717,-10.03789 0.2233,-0.91686 0.4466,-1.83371 0.67666,-2.77835 0.17894,-0.69208 0.35788,-1.38415 0.54223,-2.0972 z"
       fill="#73b51e"
       id="path71"
       style="stroke-width:23.69763637;stroke:none;stroke-opacity:1;stroke-dasharray:none" />
    <path
       d="m 718.79851,528.00686 c 2.27143,1.89286 4.54286,3.78572 6.88312,5.73594 -4.23791,1.41263 -7.11902,0.73916 -11.47187,0 0,-0.37857 0,-0.75715 0,-1.14719 1.89286,-0.37857 3.78572,-0.75714 5.73593,-1.14719 -0.37857,-1.13571 -0.75714,-2.27143 -1.14718,-3.44156 z"
       fill="#7f3fb0"
       id="path74"
       style="stroke-width:23.69763637;stroke:none;stroke-opacity:1;stroke-dasharray:none" />
    <path
       d="m 926.43951,394.93306 c -3.05794,2.03863 -5.76817,3.29872 -9.1775,4.58876 0,-0.75715 0,-1.51429 0,-2.29438 -0.75714,-0.37857 -1.51429,-0.75714 -2.29438,-1.14719 3.98453,-1.32816 7.29692,-1.22596 11.47188,-1.14719 z"
       fill="#fbe3e1"
       id="path75"
       style="stroke-width:23.69763637;stroke:none;stroke-opacity:1;stroke-dasharray:none" />
    <path
       d="m 913.82045,391.4915 c 3.40715,0.56786 3.40715,0.56786 6.88312,1.14719 0,0.75714 0,1.51429 0,2.29437 -1.89286,0.37858 -3.78572,0.75715 -5.73594,1.14719 -0.37857,-1.51429 -0.75714,-3.02857 -1.14718,-4.58875 z"
       fill="#f03a37"
       id="path80"
       style="stroke-width:23.69763637;stroke:none;stroke-opacity:1;stroke-dasharray:none" />
  </g>
</svg>
